<svg width="206" height="28" viewBox="0 0 206 28" fill="none" xmlns="http://www.w3.org/2000/svg">
<path d="M0.52 27V1.8H6.388L16.828 18.936H13.732L23.884 1.8H29.752L29.824 27H23.272L23.2 11.772H24.316L16.72 24.516H13.552L5.74 11.772H7.108V27H0.52ZM41.4197 11.556H53.1197V16.884H41.4197V11.556ZM41.9237 21.492H55.0997V27H34.8677V1.8H54.6317V7.308H41.9237V21.492ZM59.0552 27V1.8H64.9232L75.3632 18.936H72.2672L82.4192 1.8H88.2872L88.3592 27H81.8072L81.7352 11.772H82.8512L75.2552 24.516H72.0872L64.2752 11.772H65.6432V27H59.0552ZM106.435 9.828C109.507 9.828 111.883 10.512 113.563 11.88C115.267 13.248 116.119 15.3 116.119 18.036C116.119 20.988 115.171 23.22 113.275 24.732C111.379 26.244 108.787 27 105.499 27H93.5828V1.8H100.603V9.828H106.435ZM105.031 21.888C106.231 21.888 107.179 21.564 107.875 20.916C108.595 20.268 108.955 19.356 108.955 18.18C108.955 16.98 108.595 16.14 107.875 15.66C107.179 15.156 106.231 14.904 105.031 14.904H100.603V21.888H105.031ZM118.891 27V1.8H125.911V27H118.891ZM140.017 27.504C137.953 27.504 135.961 27.252 134.041 26.748C132.145 26.22 130.597 25.548 129.397 24.732L131.737 19.476C132.865 20.196 134.161 20.796 135.625 21.276C137.113 21.732 138.589 21.96 140.053 21.96C141.037 21.96 141.829 21.876 142.429 21.708C143.029 21.516 143.461 21.276 143.725 20.988C144.013 20.676 144.157 20.316 144.157 19.908C144.157 19.332 143.893 18.876 143.365 18.54C142.837 18.204 142.153 17.928 141.313 17.712C140.473 17.496 139.537 17.28 138.505 17.064C137.497 16.848 136.477 16.572 135.445 16.236C134.437 15.9 133.513 15.468 132.673 14.94C131.833 14.388 131.149 13.68 130.621 12.816C130.093 11.928 129.829 10.812 129.829 9.468C129.829 7.956 130.237 6.588 131.053 5.364C131.893 4.14 133.141 3.156 134.797 2.412C136.453 1.668 138.517 1.296 140.989 1.296C142.645 1.296 144.265 1.488 145.849 1.872C147.457 2.232 148.885 2.772 150.133 3.492L147.937 8.784C146.737 8.136 145.549 7.656 144.373 7.344C143.197 7.008 142.057 6.84 140.953 6.84C139.969 6.84 139.177 6.948 138.577 7.164C137.977 7.356 137.545 7.62 137.281 7.956C137.017 8.292 136.885 8.676 136.885 9.108C136.885 9.66 137.137 10.104 137.641 10.44C138.169 10.752 138.853 11.016 139.693 11.232C140.557 11.424 141.493 11.628 142.501 11.844C143.533 12.06 144.553 12.336 145.561 12.672C146.593 12.984 147.529 13.416 148.369 13.968C149.209 14.496 149.881 15.204 150.385 16.092C150.913 16.956 151.177 18.048 151.177 19.368C151.177 20.832 150.757 22.188 149.917 23.436C149.101 24.66 147.865 25.644 146.209 26.388C144.577 27.132 142.513 27.504 140.017 27.504ZM167.501 9.828C170.573 9.828 172.949 10.512 174.629 11.88C176.333 13.248 177.185 15.3 177.185 18.036C177.185 20.988 176.237 23.22 174.341 24.732C172.445 26.244 169.853 27 166.565 27H154.649V1.8H161.669V9.828H167.501ZM166.097 21.888C167.297 21.888 168.245 21.564 168.941 20.916C169.661 20.268 170.021 19.356 170.021 18.18C170.021 16.98 169.661 16.14 168.941 15.66C168.245 15.156 167.297 14.904 166.097 14.904H161.669V21.888H166.097ZM179.957 27V1.8H186.977V27H179.957ZM205.655 5.616L200.975 8.172V7.092L205.655 9.612L203.567 13.068L199.247 10.476L199.787 10.152L199.895 14.94H195.791L195.899 10.152L196.439 10.476L192.119 13.068L190.067 9.612L194.747 7.092V8.172L190.067 5.616L192.119 2.16L196.439 4.788L195.899 5.112L195.791 0.287998H199.895L199.787 5.112L199.247 4.788L203.567 2.16L205.655 5.616Z" fill="black"/>
</svg>
